<svg width="600" height="68" viewBox="0 0 600 68" fill="none" xmlns="http://www.w3.org/2000/svg">
<rect width="600" height="40" fill="white"/>
<line x1="40" y1="18.5" x2="560" y2="18.5" stroke="#F1F1F1" stroke-width="3"/>
<path d="M142.139 44.476L141.431 43.912L142.595 42.604L141.191 42.1L141.623 41.176L143.039 41.668L143.255 40.06H144.239L144.011 41.668L145.559 41.176L145.727 42.1L144.191 42.604L144.983 43.912L144.119 44.476L143.315 43.168L142.139 44.476ZM148.558 49L149.806 40.06H152.83C153.382 40.06 153.862 40.168 154.27 40.384C154.678 40.592 154.994 40.892 155.218 41.284C155.442 41.676 155.554 42.144 155.554 42.688C155.554 43.24 155.418 43.736 155.146 44.176C154.882 44.616 154.51 44.96 154.03 45.208C153.55 45.456 152.986 45.58 152.338 45.58H150.226L149.746 49H148.558ZM150.382 44.5H152.41C152.794 44.5 153.13 44.42 153.418 44.26C153.714 44.1 153.946 43.884 154.114 43.612C154.282 43.34 154.366 43.024 154.366 42.664C154.366 42.192 154.218 41.82 153.922 41.548C153.634 41.276 153.246 41.14 152.758 41.14H150.85L150.382 44.5ZM158.5 49.144C158.076 49.144 157.7 49.068 157.372 48.916C157.052 48.756 156.8 48.54 156.616 48.268C156.432 47.988 156.34 47.668 156.34 47.308C156.34 46.964 156.412 46.656 156.556 46.384C156.708 46.104 156.94 45.868 157.252 45.676C157.572 45.484 157.972 45.348 158.452 45.268L160.852 44.872V45.808L158.704 46.168C158.288 46.24 157.984 46.372 157.792 46.564C157.608 46.756 157.516 46.992 157.516 47.272C157.516 47.536 157.62 47.756 157.828 47.932C158.044 48.108 158.312 48.196 158.632 48.196C159.04 48.196 159.392 48.112 159.688 47.944C159.992 47.768 160.228 47.532 160.396 47.236C160.572 46.94 160.66 46.612 160.66 46.252V44.608C160.66 44.256 160.528 43.972 160.264 43.756C160.008 43.532 159.668 43.42 159.244 43.42C158.876 43.42 158.548 43.516 158.26 43.708C157.98 43.892 157.772 44.14 157.636 44.452L156.664 43.948C156.784 43.652 156.976 43.388 157.24 43.156C157.504 42.916 157.812 42.728 158.164 42.592C158.516 42.456 158.884 42.388 159.268 42.388C159.764 42.388 160.2 42.484 160.576 42.676C160.952 42.86 161.244 43.12 161.452 43.456C161.668 43.784 161.776 44.168 161.776 44.608V49H160.684V47.776L160.888 47.848C160.752 48.104 160.568 48.328 160.336 48.52C160.104 48.712 159.832 48.864 159.52 48.976C159.208 49.088 158.868 49.144 158.5 49.144ZM163.507 49V42.532H164.623V49H163.507ZM163.507 41.5V40.06H164.623V41.5H163.507ZM169.294 49.144C168.686 49.144 168.138 48.996 167.65 48.7C167.17 48.404 166.79 48 166.51 47.488C166.23 46.976 166.09 46.404 166.09 45.772C166.09 45.124 166.23 44.548 166.51 44.044C166.79 43.532 167.17 43.128 167.65 42.832C168.138 42.536 168.686 42.388 169.294 42.388C169.83 42.388 170.306 42.504 170.722 42.736C171.138 42.96 171.466 43.264 171.706 43.648L171.526 43.924V39.916H172.654V49H171.562V47.62L171.706 47.812C171.482 48.236 171.154 48.564 170.722 48.796C170.298 49.028 169.822 49.144 169.294 49.144ZM169.39 48.064C169.798 48.064 170.162 47.964 170.482 47.764C170.802 47.564 171.054 47.292 171.238 46.948C171.43 46.596 171.526 46.204 171.526 45.772C171.526 45.332 171.43 44.94 171.238 44.596C171.054 44.244 170.802 43.968 170.482 43.768C170.162 43.568 169.798 43.468 169.39 43.468C168.99 43.468 168.626 43.572 168.298 43.78C167.978 43.98 167.726 44.252 167.542 44.596C167.358 44.932 167.266 45.324 167.266 45.772C167.266 46.204 167.358 46.596 167.542 46.948C167.726 47.292 167.978 47.564 168.298 47.764C168.618 47.964 168.982 48.064 169.39 48.064ZM178.352 49.144C177.928 49.144 177.552 49.068 177.224 48.916C176.904 48.756 176.652 48.54 176.468 48.268C176.284 47.988 176.192 47.668 176.192 47.308C176.192 46.964 176.264 46.656 176.408 46.384C176.56 46.104 176.792 45.868 177.104 45.676C177.424 45.484 177.824 45.348 178.304 45.268L180.704 44.872V45.808L178.556 46.168C178.14 46.24 177.836 46.372 177.644 46.564C177.46 46.756 177.368 46.992 177.368 47.272C177.368 47.536 177.472 47.756 177.68 47.932C177.896 48.108 178.164 48.196 178.484 48.196C178.892 48.196 179.244 48.112 179.54 47.944C179.844 47.768 180.08 47.532 180.248 47.236C180.424 46.94 180.512 46.612 180.512 46.252V44.608C180.512 44.256 180.38 43.972 180.116 43.756C179.86 43.532 179.52 43.42 179.096 43.42C178.728 43.42 178.4 43.516 178.112 43.708C177.832 43.892 177.624 44.14 177.488 44.452L176.516 43.948C176.636 43.652 176.828 43.388 177.092 43.156C177.356 42.916 177.664 42.728 178.016 42.592C178.368 42.456 178.736 42.388 179.12 42.388C179.616 42.388 180.052 42.484 180.428 42.676C180.804 42.86 181.096 43.12 181.304 43.456C181.52 43.784 181.628 44.168 181.628 44.608V49H180.536V47.776L180.74 47.848C180.604 48.104 180.42 48.328 180.188 48.52C179.956 48.712 179.684 48.864 179.372 48.976C179.06 49.088 178.72 49.144 178.352 49.144ZM185.869 49.072C185.237 49.072 184.749 48.892 184.405 48.532C184.069 48.172 183.901 47.664 183.901 47.008V43.6H182.725V42.532H182.965C183.253 42.532 183.481 42.444 183.649 42.268C183.817 42.092 183.901 41.86 183.901 41.572V41.044H185.017V42.532H186.469V43.6H185.017V46.972C185.017 47.188 185.049 47.376 185.113 47.536C185.185 47.696 185.301 47.824 185.461 47.92C185.621 48.008 185.833 48.052 186.097 48.052C186.153 48.052 186.221 48.048 186.301 48.04C186.389 48.032 186.469 48.024 186.541 48.016V49C186.437 49.024 186.321 49.04 186.193 49.048C186.065 49.064 185.957 49.072 185.869 49.072ZM192.701 49.072C192.069 49.072 191.581 48.892 191.237 48.532C190.901 48.172 190.733 47.664 190.733 47.008V43.6H189.557V42.532H189.797C190.085 42.532 190.313 42.444 190.481 42.268C190.649 42.092 190.733 41.86 190.733 41.572V41.044H191.849V42.532H193.301V43.6H191.849V46.972C191.849 47.188 191.881 47.376 191.945 47.536C192.017 47.696 192.133 47.824 192.293 47.92C192.453 48.008 192.665 48.052 192.929 48.052C192.985 48.052 193.053 48.048 193.133 48.04C193.221 48.032 193.301 48.024 193.373 48.016V49C193.269 49.024 193.153 49.04 193.025 49.048C192.897 49.064 192.789 49.072 192.701 49.072ZM194.831 49V39.916H195.947V43.792L195.743 43.684C195.903 43.276 196.159 42.96 196.511 42.736C196.871 42.504 197.291 42.388 197.771 42.388C198.235 42.388 198.647 42.492 199.007 42.7C199.375 42.908 199.663 43.196 199.871 43.564C200.087 43.932 200.195 44.348 200.195 44.812V49H199.067V45.172C199.067 44.812 198.999 44.508 198.863 44.26C198.735 44.012 198.555 43.82 198.323 43.684C198.091 43.54 197.823 43.468 197.519 43.468C197.223 43.468 196.955 43.54 196.715 43.684C196.475 43.82 196.287 44.016 196.151 44.272C196.015 44.52 195.947 44.82 195.947 45.172V49H194.831ZM204.768 49.144C204.144 49.144 203.588 48.996 203.1 48.7C202.612 48.404 202.228 48 201.948 47.488C201.668 46.968 201.528 46.388 201.528 45.748C201.528 45.1 201.664 44.524 201.936 44.02C202.216 43.516 202.592 43.12 203.064 42.832C203.544 42.536 204.08 42.388 204.672 42.388C205.152 42.388 205.576 42.476 205.944 42.652C206.32 42.82 206.636 43.052 206.892 43.348C207.156 43.636 207.356 43.968 207.492 44.344C207.636 44.712 207.708 45.096 207.708 45.496C207.708 45.584 207.7 45.684 207.684 45.796C207.676 45.9 207.664 46 207.648 46.096H202.344V45.136H207L206.472 45.568C206.544 45.152 206.504 44.78 206.352 44.452C206.2 44.124 205.976 43.864 205.68 43.672C205.384 43.48 205.048 43.384 204.672 43.384C204.296 43.384 203.952 43.48 203.64 43.672C203.328 43.864 203.084 44.14 202.908 44.5C202.74 44.852 202.672 45.272 202.704 45.76C202.672 46.232 202.744 46.648 202.92 47.008C203.104 47.36 203.36 47.636 203.688 47.836C204.024 48.028 204.388 48.124 204.78 48.124C205.212 48.124 205.576 48.024 205.872 47.824C206.168 47.624 206.408 47.368 206.592 47.056L207.528 47.536C207.4 47.832 207.2 48.104 206.928 48.352C206.664 48.592 206.348 48.784 205.98 48.928C205.62 49.072 205.216 49.144 204.768 49.144ZM214.213 49.144C213.589 49.144 213.033 48.996 212.545 48.7C212.057 48.404 211.673 48 211.393 47.488C211.113 46.968 210.973 46.388 210.973 45.748C210.973 45.1 211.109 44.524 211.381 44.02C211.661 43.516 212.037 43.12 212.509 42.832C212.989 42.536 213.525 42.388 214.117 42.388C214.597 42.388 215.021 42.476 215.389 42.652C215.765 42.82 216.081 43.052 216.337 43.348C216.601 43.636 216.801 43.968 216.937 44.344C217.081 44.712 217.153 45.096 217.153 45.496C217.153 45.584 217.145 45.684 217.129 45.796C217.121 45.9 217.109 46 217.093 46.096H211.789V45.136H216.445L215.917 45.568C215.989 45.152 215.949 44.78 215.797 44.452C215.645 44.124 215.421 43.864 215.125 43.672C214.829 43.48 214.493 43.384 214.117 43.384C213.741 43.384 213.397 43.48 213.085 43.672C212.773 43.864 212.529 44.14 212.353 44.5C212.185 44.852 212.117 45.272 212.149 45.76C212.117 46.232 212.189 46.648 212.365 47.008C212.549 47.36 212.805 47.636 213.133 47.836C213.469 48.028 213.833 48.124 214.225 48.124C214.657 48.124 215.021 48.024 215.317 47.824C215.613 47.624 215.853 47.368 216.037 47.056L216.973 47.536C216.845 47.832 216.645 48.104 216.373 48.352C216.109 48.592 215.793 48.784 215.425 48.928C215.065 49.072 214.661 49.144 214.213 49.144ZM218.608 49V42.532H219.7V43.792L219.52 43.684C219.68 43.276 219.936 42.96 220.288 42.736C220.648 42.504 221.068 42.388 221.548 42.388C222.012 42.388 222.424 42.492 222.784 42.7C223.152 42.908 223.44 43.196 223.648 43.564C223.864 43.932 223.972 44.348 223.972 44.812V49H222.844V45.172C222.844 44.812 222.78 44.508 222.652 44.26C222.524 44.012 222.34 43.82 222.1 43.684C221.868 43.54 221.6 43.468 221.296 43.468C220.992 43.468 220.72 43.54 220.48 43.684C220.248 43.82 220.064 44.016 219.928 44.272C219.792 44.52 219.724 44.82 219.724 45.172V49H218.608ZM228.509 49.144C227.901 49.144 227.353 48.996 226.865 48.7C226.385 48.404 226.005 48 225.725 47.488C225.445 46.976 225.305 46.404 225.305 45.772C225.305 45.124 225.445 44.548 225.725 44.044C226.005 43.532 226.385 43.128 226.865 42.832C227.353 42.536 227.901 42.388 228.509 42.388C229.045 42.388 229.521 42.504 229.937 42.736C230.353 42.96 230.681 43.264 230.921 43.648L230.741 43.924V39.916H231.869V49H230.777V47.62L230.921 47.812C230.697 48.236 230.369 48.564 229.937 48.796C229.513 49.028 229.037 49.144 228.509 49.144ZM228.605 48.064C229.013 48.064 229.377 47.964 229.697 47.764C230.017 47.564 230.269 47.292 230.453 46.948C230.645 46.596 230.741 46.204 230.741 45.772C230.741 45.332 230.645 44.94 230.453 44.596C230.269 44.244 230.017 43.968 229.697 43.768C229.377 43.568 229.013 43.468 228.605 43.468C228.205 43.468 227.841 43.572 227.513 43.78C227.193 43.98 226.941 44.252 226.757 44.596C226.573 44.932 226.481 45.324 226.481 45.772C226.481 46.204 226.573 46.596 226.757 46.948C226.941 47.292 227.193 47.564 227.513 47.764C227.833 47.964 228.197 48.064 228.605 48.064ZM238.743 49.144C238.119 49.144 237.555 49 237.051 48.712C236.547 48.416 236.147 48.012 235.851 47.5C235.555 46.988 235.407 46.408 235.407 45.76C235.407 45.112 235.551 44.536 235.839 44.032C236.135 43.528 236.535 43.128 237.039 42.832C237.543 42.536 238.111 42.388 238.743 42.388C239.367 42.388 239.931 42.536 240.435 42.832C240.939 43.12 241.335 43.516 241.623 44.02C241.919 44.524 242.067 45.104 242.067 45.76C242.067 46.416 241.915 47 241.611 47.512C241.307 48.016 240.903 48.416 240.399 48.712C239.903 49 239.351 49.144 238.743 49.144ZM238.743 48.064C239.143 48.064 239.503 47.964 239.823 47.764C240.151 47.564 240.407 47.288 240.591 46.936C240.783 46.584 240.879 46.192 240.879 45.76C240.879 45.32 240.783 44.932 240.591 44.596C240.407 44.252 240.151 43.98 239.823 43.78C239.503 43.572 239.143 43.468 238.743 43.468C238.335 43.468 237.967 43.572 237.639 43.78C237.319 43.98 237.063 44.252 236.871 44.596C236.679 44.932 236.583 45.32 236.583 45.76C236.583 46.192 236.679 46.584 236.871 46.936C237.063 47.288 237.319 47.564 237.639 47.764C237.967 47.964 238.335 48.064 238.743 48.064ZM244.007 49V43.6H242.771V42.532H244.007V42.076C244.007 41.612 244.107 41.22 244.307 40.9C244.515 40.58 244.787 40.336 245.123 40.168C245.467 40 245.847 39.916 246.263 39.916C246.351 39.916 246.447 39.924 246.551 39.94C246.663 39.948 246.755 39.96 246.827 39.976V40.972C246.763 40.956 246.687 40.948 246.599 40.948C246.511 40.94 246.443 40.936 246.395 40.936C246.027 40.936 245.723 41.024 245.483 41.2C245.251 41.376 245.135 41.668 245.135 42.076V42.532H246.671V43.6H245.135V49H244.007ZM250.167 49V39.916H251.283V49H250.167ZM256.086 49.144C255.462 49.144 254.898 49 254.394 48.712C253.89 48.416 253.49 48.012 253.194 47.5C252.898 46.988 252.75 46.408 252.75 45.76C252.75 45.112 252.894 44.536 253.182 44.032C253.478 43.528 253.878 43.128 254.382 42.832C254.886 42.536 255.454 42.388 256.086 42.388C256.71 42.388 257.274 42.536 257.778 42.832C258.282 43.12 258.678 43.516 258.966 44.02C259.262 44.524 259.41 45.104 259.41 45.76C259.41 46.416 259.258 47 258.954 47.512C258.65 48.016 258.246 48.416 257.742 48.712C257.246 49 256.694 49.144 256.086 49.144ZM256.086 48.064C256.486 48.064 256.846 47.964 257.166 47.764C257.494 47.564 257.75 47.288 257.934 46.936C258.126 46.584 258.222 46.192 258.222 45.76C258.222 45.32 258.126 44.932 257.934 44.596C257.75 44.252 257.494 43.98 257.166 43.78C256.846 43.572 256.486 43.468 256.086 43.468C255.678 43.468 255.31 43.572 254.982 43.78C254.662 43.98 254.406 44.252 254.214 44.596C254.022 44.932 253.926 45.32 253.926 45.76C253.926 46.192 254.022 46.584 254.214 46.936C254.406 47.288 254.662 47.564 254.982 47.764C255.31 47.964 255.678 48.064 256.086 48.064ZM262.762 49.144C262.338 49.144 261.962 49.068 261.634 48.916C261.314 48.756 261.062 48.54 260.878 48.268C260.694 47.988 260.602 47.668 260.602 47.308C260.602 46.964 260.674 46.656 260.818 46.384C260.97 46.104 261.202 45.868 261.514 45.676C261.834 45.484 262.234 45.348 262.714 45.268L265.114 44.872V45.808L262.966 46.168C262.55 46.24 262.246 46.372 262.054 46.564C261.87 46.756 261.778 46.992 261.778 47.272C261.778 47.536 261.882 47.756 262.09 47.932C262.306 48.108 262.574 48.196 262.894 48.196C263.302 48.196 263.654 48.112 263.95 47.944C264.254 47.768 264.49 47.532 264.658 47.236C264.834 46.94 264.922 46.612 264.922 46.252V44.608C264.922 44.256 264.79 43.972 264.526 43.756C264.27 43.532 263.93 43.42 263.506 43.42C263.138 43.42 262.81 43.516 262.522 43.708C262.242 43.892 262.034 44.14 261.898 44.452L260.926 43.948C261.046 43.652 261.238 43.388 261.502 43.156C261.766 42.916 262.074 42.728 262.426 42.592C262.778 42.456 263.146 42.388 263.53 42.388C264.026 42.388 264.462 42.484 264.838 42.676C265.214 42.86 265.506 43.12 265.714 43.456C265.93 43.784 266.038 44.168 266.038 44.608V49H264.946V47.776L265.15 47.848C265.014 48.104 264.83 48.328 264.598 48.52C264.366 48.712 264.094 48.864 263.782 48.976C263.47 49.088 263.13 49.144 262.762 49.144ZM267.768 49V42.532H268.86V43.792L268.68 43.684C268.84 43.276 269.096 42.96 269.448 42.736C269.808 42.504 270.228 42.388 270.708 42.388C271.172 42.388 271.584 42.492 271.944 42.7C272.312 42.908 272.6 43.196 272.808 43.564C273.024 43.932 273.132 44.348 273.132 44.812V49H272.004V45.172C272.004 44.812 271.94 44.508 271.812 44.26C271.684 44.012 271.5 43.82 271.26 43.684C271.028 43.54 270.76 43.468 270.456 43.468C270.152 43.468 269.88 43.54 269.64 43.684C269.408 43.82 269.224 44.016 269.088 44.272C268.952 44.52 268.884 44.82 268.884 45.172V49H267.768ZM279.431 49.072C278.799 49.072 278.311 48.892 277.967 48.532C277.631 48.172 277.463 47.664 277.463 47.008V43.6H276.287V42.532H276.527C276.815 42.532 277.043 42.444 277.211 42.268C277.379 42.092 277.463 41.86 277.463 41.572V41.044H278.579V42.532H280.031V43.6H278.579V46.972C278.579 47.188 278.611 47.376 278.675 47.536C278.747 47.696 278.863 47.824 279.023 47.92C279.183 48.008 279.395 48.052 279.659 48.052C279.715 48.052 279.783 48.048 279.863 48.04C279.951 48.032 280.031 48.024 280.103 48.016V49C279.999 49.024 279.883 49.04 279.755 49.048C279.627 49.064 279.519 49.072 279.431 49.072ZM284.361 49.144C283.737 49.144 283.181 48.996 282.693 48.7C282.205 48.404 281.821 48 281.541 47.488C281.261 46.968 281.121 46.388 281.121 45.748C281.121 45.1 281.257 44.524 281.529 44.02C281.809 43.516 282.185 43.12 282.657 42.832C283.137 42.536 283.673 42.388 284.265 42.388C284.745 42.388 285.169 42.476 285.537 42.652C285.913 42.82 286.229 43.052 286.485 43.348C286.749 43.636 286.949 43.968 287.085 44.344C287.229 44.712 287.301 45.096 287.301 45.496C287.301 45.584 287.293 45.684 287.277 45.796C287.269 45.9 287.257 46 287.241 46.096H281.937V45.136H286.593L286.065 45.568C286.137 45.152 286.097 44.78 285.945 44.452C285.793 44.124 285.569 43.864 285.273 43.672C284.977 43.48 284.641 43.384 284.265 43.384C283.889 43.384 283.545 43.48 283.233 43.672C282.921 43.864 282.677 44.14 282.501 44.5C282.333 44.852 282.265 45.272 282.297 45.76C282.265 46.232 282.337 46.648 282.513 47.008C282.697 47.36 282.953 47.636 283.281 47.836C283.617 48.028 283.981 48.124 284.373 48.124C284.805 48.124 285.169 48.024 285.465 47.824C285.761 47.624 286.001 47.368 286.185 47.056L287.121 47.536C286.993 47.832 286.793 48.104 286.521 48.352C286.257 48.592 285.941 48.784 285.573 48.928C285.213 49.072 284.809 49.144 284.361 49.144ZM288.757 49V42.532H289.849V43.792L289.669 43.684C289.829 43.276 290.085 42.96 290.437 42.736C290.797 42.504 291.217 42.388 291.697 42.388C292.161 42.388 292.573 42.492 292.933 42.7C293.301 42.908 293.589 43.196 293.797 43.564C294.013 43.932 294.121 44.348 294.121 44.812V49H292.993V45.172C292.993 44.812 292.929 44.508 292.801 44.26C292.673 44.012 292.489 43.82 292.249 43.684C292.017 43.54 291.749 43.468 291.445 43.468C291.141 43.468 290.869 43.54 290.629 43.684C290.397 43.82 290.213 44.016 290.077 44.272C289.941 44.52 289.873 44.82 289.873 45.172V49H288.757ZM298.01 49.144C297.546 49.144 297.126 49.036 296.75 48.82C296.382 48.604 296.094 48.304 295.886 47.92C295.686 47.528 295.586 47.08 295.586 46.576V42.532H296.702V46.456C296.702 46.776 296.766 47.056 296.894 47.296C297.03 47.536 297.214 47.724 297.446 47.86C297.686 47.996 297.958 48.064 298.262 48.064C298.566 48.064 298.834 47.996 299.066 47.86C299.306 47.724 299.49 47.528 299.618 47.272C299.754 47.016 299.822 46.712 299.822 46.36V42.532H300.95V49H299.858V47.74L300.038 47.848C299.886 48.256 299.626 48.576 299.258 48.808C298.898 49.032 298.482 49.144 298.01 49.144ZM302.678 49V42.532H303.77V43.72L303.65 43.552C303.802 43.184 304.034 42.912 304.346 42.736C304.658 42.552 305.038 42.46 305.486 42.46H305.882V43.516H305.318C304.862 43.516 304.494 43.66 304.214 43.948C303.934 44.228 303.794 44.628 303.794 45.148V49H302.678ZM309.85 49.144C309.226 49.144 308.67 48.996 308.182 48.7C307.694 48.404 307.31 48 307.03 47.488C306.75 46.968 306.61 46.388 306.61 45.748C306.61 45.1 306.746 44.524 307.018 44.02C307.298 43.516 307.674 43.12 308.146 42.832C308.626 42.536 309.162 42.388 309.754 42.388C310.234 42.388 310.658 42.476 311.026 42.652C311.402 42.82 311.718 43.052 311.974 43.348C312.238 43.636 312.438 43.968 312.574 44.344C312.718 44.712 312.79 45.096 312.79 45.496C312.79 45.584 312.782 45.684 312.766 45.796C312.758 45.9 312.746 46 312.73 46.096H307.426V45.136H312.082L311.554 45.568C311.626 45.152 311.586 44.78 311.434 44.452C311.282 44.124 311.058 43.864 310.762 43.672C310.466 43.48 310.13 43.384 309.754 43.384C309.378 43.384 309.034 43.48 308.722 43.672C308.41 43.864 308.166 44.14 307.99 44.5C307.822 44.852 307.754 45.272 307.786 45.76C307.754 46.232 307.826 46.648 308.002 47.008C308.186 47.36 308.442 47.636 308.77 47.836C309.106 48.028 309.47 48.124 309.862 48.124C310.294 48.124 310.658 48.024 310.954 47.824C311.25 47.624 311.49 47.368 311.674 47.056L312.61 47.536C312.482 47.832 312.282 48.104 312.01 48.352C311.746 48.592 311.43 48.784 311.062 48.928C310.702 49.072 310.298 49.144 309.85 49.144ZM316.319 49V42.532H317.435V49H316.319ZM316.319 41.5V40.06H317.435V41.5H316.319ZM319.851 49V43.6H318.615V42.532H319.851V42.076C319.851 41.612 319.951 41.22 320.151 40.9C320.359 40.58 320.631 40.336 320.967 40.168C321.311 40 321.691 39.916 322.107 39.916C322.195 39.916 322.291 39.924 322.395 39.94C322.507 39.948 322.599 39.96 322.671 39.976V40.972C322.607 40.956 322.531 40.948 322.443 40.948C322.355 40.94 322.287 40.936 322.239 40.936C321.871 40.936 321.567 41.024 321.327 41.2C321.095 41.376 320.979 41.668 320.979 42.076V42.532H322.515V43.6H320.979V49H319.851ZM327.906 49.144C327.482 49.144 327.106 49.068 326.778 48.916C326.458 48.756 326.206 48.54 326.022 48.268C325.838 47.988 325.746 47.668 325.746 47.308C325.746 46.964 325.818 46.656 325.962 46.384C326.114 46.104 326.346 45.868 326.658 45.676C326.978 45.484 327.378 45.348 327.858 45.268L330.258 44.872V45.808L328.11 46.168C327.694 46.24 327.39 46.372 327.198 46.564C327.014 46.756 326.922 46.992 326.922 47.272C326.922 47.536 327.026 47.756 327.234 47.932C327.45 48.108 327.718 48.196 328.038 48.196C328.446 48.196 328.798 48.112 329.094 47.944C329.398 47.768 329.634 47.532 329.802 47.236C329.978 46.94 330.066 46.612 330.066 46.252V44.608C330.066 44.256 329.934 43.972 329.67 43.756C329.414 43.532 329.074 43.42 328.65 43.42C328.282 43.42 327.954 43.516 327.666 43.708C327.386 43.892 327.178 44.14 327.042 44.452L326.07 43.948C326.19 43.652 326.382 43.388 326.646 43.156C326.91 42.916 327.218 42.728 327.57 42.592C327.922 42.456 328.29 42.388 328.674 42.388C329.17 42.388 329.606 42.484 329.982 42.676C330.358 42.86 330.65 43.12 330.858 43.456C331.074 43.784 331.182 44.168 331.182 44.608V49H330.09V47.776L330.294 47.848C330.158 48.104 329.974 48.328 329.742 48.52C329.51 48.712 329.238 48.864 328.926 48.976C328.614 49.088 328.274 49.144 327.906 49.144ZM332.913 49V39.916H334.029V49H332.913ZM335.76 49V39.916H336.876V49H335.76ZM340.814 49V40.06H346.634V41.14H341.99V43.972H346.394V45.052H341.99V47.92H346.634V49H340.814ZM348.092 49V40.06H349.172L352.52 44.824H351.968L355.292 40.06H356.372V49H355.184V41.548L355.604 41.68L352.28 46.36H352.184L348.896 41.68L349.268 41.548V49H348.092ZM358.357 49V40.06H359.533V49H358.357ZM363.705 49.144C363.057 49.144 362.493 48.984 362.013 48.664C361.533 48.344 361.193 47.912 360.993 47.368L361.881 46.936C362.065 47.32 362.317 47.624 362.637 47.848C362.957 48.072 363.313 48.184 363.705 48.184C364.057 48.184 364.349 48.1 364.581 47.932C364.813 47.764 364.929 47.544 364.929 47.272C364.929 47.08 364.873 46.928 364.761 46.816C364.657 46.696 364.529 46.604 364.377 46.54C364.225 46.468 364.085 46.416 363.957 46.384L362.985 46.108C362.401 45.94 361.973 45.7 361.701 45.388C361.437 45.076 361.305 44.712 361.305 44.296C361.305 43.912 361.401 43.58 361.593 43.3C361.793 43.012 362.061 42.788 362.397 42.628C362.741 42.468 363.125 42.388 363.549 42.388C364.117 42.388 364.625 42.532 365.073 42.82C365.529 43.108 365.853 43.512 366.045 44.032L365.133 44.452C364.989 44.116 364.773 43.852 364.485 43.66C364.197 43.46 363.873 43.36 363.513 43.36C363.185 43.36 362.925 43.444 362.733 43.612C362.541 43.772 362.445 43.976 362.445 44.224C362.445 44.408 362.493 44.56 362.589 44.68C362.685 44.792 362.801 44.88 362.937 44.944C363.073 45 363.205 45.048 363.333 45.088L364.389 45.4C364.917 45.552 365.325 45.788 365.613 46.108C365.909 46.428 366.057 46.812 366.057 47.26C366.057 47.62 365.957 47.944 365.757 48.232C365.557 48.52 365.281 48.744 364.929 48.904C364.577 49.064 364.169 49.144 363.705 49.144ZM371.489 49.144C371.065 49.144 370.689 49.068 370.361 48.916C370.041 48.756 369.789 48.54 369.605 48.268C369.421 47.988 369.329 47.668 369.329 47.308C369.329 46.964 369.401 46.656 369.545 46.384C369.697 46.104 369.929 45.868 370.241 45.676C370.561 45.484 370.961 45.348 371.441 45.268L373.841 44.872V45.808L371.693 46.168C371.277 46.24 370.973 46.372 370.781 46.564C370.597 46.756 370.505 46.992 370.505 47.272C370.505 47.536 370.609 47.756 370.817 47.932C371.033 48.108 371.301 48.196 371.621 48.196C372.029 48.196 372.381 48.112 372.677 47.944C372.981 47.768 373.217 47.532 373.385 47.236C373.561 46.94 373.649 46.612 373.649 46.252V44.608C373.649 44.256 373.517 43.972 373.253 43.756C372.997 43.532 372.657 43.42 372.233 43.42C371.865 43.42 371.537 43.516 371.249 43.708C370.969 43.892 370.761 44.14 370.625 44.452L369.653 43.948C369.773 43.652 369.965 43.388 370.229 43.156C370.493 42.916 370.801 42.728 371.153 42.592C371.505 42.456 371.873 42.388 372.257 42.388C372.753 42.388 373.189 42.484 373.565 42.676C373.941 42.86 374.233 43.12 374.441 43.456C374.657 43.784 374.765 44.168 374.765 44.608V49H373.673V47.776L373.877 47.848C373.741 48.104 373.557 48.328 373.325 48.52C373.093 48.712 372.821 48.864 372.509 48.976C372.197 49.088 371.857 49.144 371.489 49.144ZM376.495 49V42.532H377.587V43.72L377.467 43.552C377.619 43.184 377.851 42.912 378.163 42.736C378.475 42.552 378.855 42.46 379.303 42.46H379.699V43.516H379.135C378.679 43.516 378.311 43.66 378.031 43.948C377.751 44.228 377.611 44.628 377.611 45.148V49H376.495ZM383.666 49.144C383.042 49.144 382.486 48.996 381.998 48.7C381.51 48.404 381.126 48 380.846 47.488C380.566 46.968 380.426 46.388 380.426 45.748C380.426 45.1 380.562 44.524 380.834 44.02C381.114 43.516 381.49 43.12 381.962 42.832C382.442 42.536 382.978 42.388 383.57 42.388C384.05 42.388 384.474 42.476 384.842 42.652C385.218 42.82 385.534 43.052 385.79 43.348C386.054 43.636 386.254 43.968 386.39 44.344C386.534 44.712 386.606 45.096 386.606 45.496C386.606 45.584 386.598 45.684 386.582 45.796C386.574 45.9 386.562 46 386.546 46.096H381.242V45.136H385.898L385.37 45.568C385.442 45.152 385.402 44.78 385.25 44.452C385.098 44.124 384.874 43.864 384.578 43.672C384.282 43.48 383.946 43.384 383.57 43.384C383.194 43.384 382.85 43.48 382.538 43.672C382.226 43.864 381.982 44.14 381.806 44.5C381.638 44.852 381.57 45.272 381.602 45.76C381.57 46.232 381.642 46.648 381.818 47.008C382.002 47.36 382.258 47.636 382.586 47.836C382.922 48.028 383.286 48.124 383.678 48.124C384.11 48.124 384.474 48.024 384.77 47.824C385.066 47.624 385.306 47.368 385.49 47.056L386.426 47.536C386.298 47.832 386.098 48.104 385.826 48.352C385.562 48.592 385.246 48.784 384.878 48.928C384.518 49.072 384.114 49.144 383.666 49.144ZM390.135 51.4V42.532H391.227V43.924L391.083 43.648C391.323 43.264 391.651 42.96 392.067 42.736C392.483 42.504 392.959 42.388 393.495 42.388C394.103 42.388 394.647 42.536 395.127 42.832C395.615 43.128 395.999 43.532 396.279 44.044C396.559 44.548 396.699 45.124 396.699 45.772C396.699 46.404 396.559 46.976 396.279 47.488C395.999 48 395.615 48.404 395.127 48.7C394.647 48.996 394.099 49.144 393.483 49.144C392.963 49.144 392.487 49.028 392.055 48.796C391.631 48.564 391.303 48.236 391.071 47.812L391.251 47.62V51.4H390.135ZM393.399 48.064C393.807 48.064 394.171 47.964 394.491 47.764C394.811 47.564 395.059 47.292 395.235 46.948C395.419 46.596 395.511 46.204 395.511 45.772C395.511 45.324 395.419 44.932 395.235 44.596C395.059 44.252 394.811 43.98 394.491 43.78C394.171 43.572 393.807 43.468 393.399 43.468C392.991 43.468 392.623 43.568 392.295 43.768C391.975 43.968 391.719 44.244 391.527 44.596C391.343 44.94 391.251 45.332 391.251 45.772C391.251 46.204 391.343 46.596 391.527 46.948C391.719 47.292 391.975 47.564 392.295 47.764C392.623 47.964 392.991 48.064 393.399 48.064ZM400.059 49.144C399.635 49.144 399.259 49.068 398.931 48.916C398.611 48.756 398.359 48.54 398.175 48.268C397.991 47.988 397.899 47.668 397.899 47.308C397.899 46.964 397.971 46.656 398.115 46.384C398.267 46.104 398.499 45.868 398.811 45.676C399.131 45.484 399.531 45.348 400.011 45.268L402.411 44.872V45.808L400.263 46.168C399.847 46.24 399.543 46.372 399.351 46.564C399.167 46.756 399.075 46.992 399.075 47.272C399.075 47.536 399.179 47.756 399.387 47.932C399.603 48.108 399.871 48.196 400.191 48.196C400.599 48.196 400.951 48.112 401.247 47.944C401.551 47.768 401.787 47.532 401.955 47.236C402.131 46.94 402.219 46.612 402.219 46.252V44.608C402.219 44.256 402.087 43.972 401.823 43.756C401.567 43.532 401.227 43.42 400.803 43.42C400.435 43.42 400.107 43.516 399.819 43.708C399.539 43.892 399.331 44.14 399.195 44.452L398.223 43.948C398.343 43.652 398.535 43.388 398.799 43.156C399.063 42.916 399.371 42.728 399.723 42.592C400.075 42.456 400.443 42.388 400.827 42.388C401.323 42.388 401.759 42.484 402.135 42.676C402.511 42.86 402.803 43.12 403.011 43.456C403.227 43.784 403.335 44.168 403.335 44.608V49H402.243V47.776L402.447 47.848C402.311 48.104 402.127 48.328 401.895 48.52C401.663 48.712 401.391 48.864 401.079 48.976C400.767 49.088 400.427 49.144 400.059 49.144ZM405.065 49V42.532H406.181V49H405.065ZM405.065 41.5V40.06H406.181V41.5H405.065ZM410.853 49.144C410.245 49.144 409.697 48.996 409.209 48.7C408.729 48.404 408.349 48 408.069 47.488C407.789 46.976 407.649 46.404 407.649 45.772C407.649 45.124 407.789 44.548 408.069 44.044C408.349 43.532 408.729 43.128 409.209 42.832C409.697 42.536 410.245 42.388 410.853 42.388C411.389 42.388 411.865 42.504 412.281 42.736C412.697 42.96 413.025 43.264 413.265 43.648L413.085 43.924V39.916H414.213V49H413.121V47.62L413.265 47.812C413.041 48.236 412.713 48.564 412.281 48.796C411.857 49.028 411.381 49.144 410.853 49.144ZM410.949 48.064C411.357 48.064 411.721 47.964 412.041 47.764C412.361 47.564 412.613 47.292 412.797 46.948C412.989 46.596 413.085 46.204 413.085 45.772C413.085 45.332 412.989 44.94 412.797 44.596C412.613 44.244 412.361 43.968 412.041 43.768C411.721 43.568 411.357 43.468 410.949 43.468C410.549 43.468 410.185 43.572 409.857 43.78C409.537 43.98 409.285 44.252 409.101 44.596C408.917 44.932 408.825 45.324 408.825 45.772C408.825 46.204 408.917 46.596 409.101 46.948C409.285 47.292 409.537 47.564 409.857 47.764C410.177 47.964 410.541 48.064 410.949 48.064ZM421.086 49.144C420.462 49.144 419.898 49 419.394 48.712C418.89 48.416 418.49 48.012 418.194 47.5C417.898 46.988 417.75 46.408 417.75 45.76C417.75 45.112 417.894 44.536 418.182 44.032C418.478 43.528 418.878 43.128 419.382 42.832C419.886 42.536 420.454 42.388 421.086 42.388C421.71 42.388 422.274 42.536 422.778 42.832C423.282 43.12 423.678 43.516 423.966 44.02C424.262 44.524 424.41 45.104 424.41 45.76C424.41 46.416 424.258 47 423.954 47.512C423.65 48.016 423.246 48.416 422.742 48.712C422.246 49 421.694 49.144 421.086 49.144ZM421.086 48.064C421.486 48.064 421.846 47.964 422.166 47.764C422.494 47.564 422.75 47.288 422.934 46.936C423.126 46.584 423.222 46.192 423.222 45.76C423.222 45.32 423.126 44.932 422.934 44.596C422.75 44.252 422.494 43.98 422.166 43.78C421.846 43.572 421.486 43.468 421.086 43.468C420.678 43.468 420.31 43.572 419.982 43.78C419.662 43.98 419.406 44.252 419.214 44.596C419.022 44.932 418.926 45.32 418.926 45.76C418.926 46.192 419.022 46.584 419.214 46.936C419.406 47.288 419.662 47.564 419.982 47.764C420.31 47.964 420.678 48.064 421.086 48.064ZM425.866 49V42.532H426.958V43.792L426.778 43.684C426.938 43.276 427.194 42.96 427.546 42.736C427.906 42.504 428.326 42.388 428.806 42.388C429.27 42.388 429.682 42.492 430.042 42.7C430.41 42.908 430.698 43.196 430.906 43.564C431.122 43.932 431.23 44.348 431.23 44.812V49H430.102V45.172C430.102 44.812 430.038 44.508 429.91 44.26C429.782 44.012 429.598 43.82 429.358 43.684C429.126 43.54 428.858 43.468 428.554 43.468C428.25 43.468 427.978 43.54 427.738 43.684C427.506 43.82 427.322 44.016 427.186 44.272C427.05 44.52 426.982 44.82 426.982 45.172V49H425.866ZM437.529 49.072C436.897 49.072 436.409 48.892 436.065 48.532C435.729 48.172 435.561 47.664 435.561 47.008V43.6H434.385V42.532H434.625C434.913 42.532 435.141 42.444 435.309 42.268C435.477 42.092 435.561 41.86 435.561 41.572V41.044H436.677V42.532H438.129V43.6H436.677V46.972C436.677 47.188 436.709 47.376 436.773 47.536C436.845 47.696 436.961 47.824 437.121 47.92C437.281 48.008 437.493 48.052 437.757 48.052C437.813 48.052 437.881 48.048 437.961 48.04C438.049 48.032 438.129 48.024 438.201 48.016V49C438.097 49.024 437.981 49.04 437.853 49.048C437.725 49.064 437.617 49.072 437.529 49.072ZM439.659 49V42.532H440.775V49H439.659ZM439.659 41.5V40.06H440.775V41.5H439.659ZM442.507 49V42.532H443.599V43.852L443.443 43.648C443.603 43.24 443.859 42.928 444.211 42.712C444.563 42.496 444.959 42.388 445.399 42.388C445.903 42.388 446.355 42.528 446.755 42.808C447.163 43.088 447.443 43.456 447.595 43.912L447.283 43.924C447.451 43.42 447.735 43.04 448.135 42.784C448.535 42.52 448.979 42.388 449.467 42.388C449.915 42.388 450.319 42.492 450.679 42.7C451.047 42.908 451.339 43.196 451.555 43.564C451.771 43.932 451.879 44.348 451.879 44.812V49H450.751V45.172C450.751 44.812 450.687 44.508 450.559 44.26C450.431 44.012 450.255 43.82 450.031 43.684C449.815 43.54 449.559 43.468 449.263 43.468C448.975 43.468 448.715 43.54 448.483 43.684C448.259 43.82 448.079 44.016 447.943 44.272C447.815 44.52 447.751 44.82 447.751 45.172V49H446.623V45.172C446.623 44.812 446.559 44.508 446.431 44.26C446.303 44.012 446.127 43.82 445.903 43.684C445.687 43.54 445.431 43.468 445.135 43.468C444.847 43.468 444.587 43.54 444.355 43.684C444.131 43.82 443.951 44.016 443.815 44.272C443.687 44.52 443.623 44.82 443.623 45.172V49H442.507ZM456.44 49.144C455.816 49.144 455.26 48.996 454.772 48.7C454.284 48.404 453.9 48 453.62 47.488C453.34 46.968 453.2 46.388 453.2 45.748C453.2 45.1 453.336 44.524 453.608 44.02C453.888 43.516 454.264 43.12 454.736 42.832C455.216 42.536 455.752 42.388 456.344 42.388C456.824 42.388 457.248 42.476 457.616 42.652C457.992 42.82 458.308 43.052 458.564 43.348C458.828 43.636 459.028 43.968 459.164 44.344C459.308 44.712 459.38 45.096 459.38 45.496C459.38 45.584 459.372 45.684 459.356 45.796C459.348 45.9 459.336 46 459.32 46.096H454.016V45.136H458.672L458.144 45.568C458.216 45.152 458.176 44.78 458.024 44.452C457.872 44.124 457.648 43.864 457.352 43.672C457.056 43.48 456.72 43.384 456.344 43.384C455.968 43.384 455.624 43.48 455.312 43.672C455 43.864 454.756 44.14 454.58 44.5C454.412 44.852 454.344 45.272 454.376 45.76C454.344 46.232 454.416 46.648 454.592 47.008C454.776 47.36 455.032 47.636 455.36 47.836C455.696 48.028 456.06 48.124 456.452 48.124C456.884 48.124 457.248 48.024 457.544 47.824C457.84 47.624 458.08 47.368 458.264 47.056L459.2 47.536C459.072 47.832 458.872 48.104 458.6 48.352C458.336 48.592 458.02 48.784 457.652 48.928C457.292 49.072 456.888 49.144 456.44 49.144ZM141.4 65L139.432 56.06H140.644L142.276 63.92H142.012L145.84 56.06H147.172L142.696 65H141.4ZM148.492 65.144C148.124 65.144 147.78 65.08 147.46 64.952C147.148 64.816 146.896 64.62 146.704 64.364C146.512 64.1 146.416 63.772 146.416 63.38C146.416 63.004 146.508 62.672 146.692 62.384C146.884 62.088 147.152 61.848 147.496 61.664C147.848 61.472 148.26 61.34 148.732 61.268L151.18 60.872L151.084 61.808L148.924 62.18C148.516 62.252 148.192 62.388 147.952 62.588C147.712 62.78 147.592 63.024 147.592 63.32C147.592 63.592 147.692 63.808 147.892 63.968C148.1 64.12 148.368 64.196 148.696 64.196C149.072 64.196 149.412 64.108 149.716 63.932C150.028 63.756 150.284 63.52 150.484 63.224C150.692 62.92 150.82 62.588 150.868 62.228L151.072 60.692C151.12 60.404 151.084 60.168 150.964 59.984C150.844 59.792 150.676 59.652 150.46 59.564C150.252 59.468 150.028 59.42 149.788 59.42C149.396 59.42 149.044 59.52 148.732 59.72C148.428 59.92 148.192 60.172 148.024 60.476L147.088 59.912C147.248 59.616 147.464 59.356 147.736 59.132C148.016 58.9 148.336 58.72 148.696 58.592C149.064 58.456 149.452 58.388 149.86 58.388C150.34 58.388 150.768 58.488 151.144 58.688C151.528 58.888 151.816 59.164 152.008 59.516C152.208 59.868 152.276 60.276 152.212 60.74L151.612 65H150.508L150.676 63.776L150.916 63.884C150.748 64.14 150.54 64.364 150.292 64.556C150.044 64.74 149.768 64.884 149.464 64.988C149.16 65.092 148.836 65.144 148.492 65.144ZM153.342 65L154.614 55.916H155.754L154.482 65H153.342ZM156.213 65L157.125 58.532H158.253L157.353 65H156.213ZM157.269 57.5L157.461 56.06H158.601L158.409 57.5H157.269ZM162.276 65.144C161.692 65.144 161.172 65.012 160.716 64.748C160.26 64.476 159.904 64.108 159.648 63.644C159.4 63.172 159.276 62.636 159.276 62.036C159.276 61.524 159.36 61.048 159.528 60.608C159.704 60.16 159.948 59.772 160.26 59.444C160.58 59.116 160.948 58.86 161.364 58.676C161.788 58.484 162.244 58.388 162.732 58.388C163.3 58.388 163.788 58.508 164.196 58.748C164.612 58.98 164.932 59.296 165.156 59.696L164.964 59.924L165.516 55.916H166.656L165.396 65H164.292L164.472 63.62L164.772 63.8C164.524 64.232 164.176 64.564 163.728 64.796C163.28 65.028 162.796 65.144 162.276 65.144ZM162.396 64.064C162.836 64.064 163.232 63.948 163.584 63.716C163.944 63.484 164.224 63.18 164.424 62.804C164.632 62.42 164.736 62.004 164.736 61.556C164.736 61.156 164.652 60.8 164.484 60.488C164.316 60.176 164.084 59.928 163.788 59.744C163.492 59.56 163.152 59.468 162.768 59.468C162.328 59.468 161.932 59.584 161.58 59.816C161.228 60.048 160.952 60.356 160.752 60.74C160.56 61.124 160.464 61.548 160.464 62.012C160.464 62.404 160.544 62.756 160.704 63.068C160.872 63.372 161.1 63.616 161.388 63.8C161.684 63.976 162.02 64.064 162.396 64.064ZM169.869 65L170.625 59.6H169.389L169.545 58.532H170.781L170.841 58.136C170.913 57.648 171.069 57.24 171.309 56.912C171.549 56.576 171.841 56.328 172.185 56.168C172.537 56 172.909 55.916 173.301 55.916C173.413 55.916 173.525 55.924 173.637 55.94C173.749 55.948 173.845 55.96 173.925 55.976L173.853 56.972C173.789 56.956 173.713 56.948 173.625 56.948C173.545 56.94 173.489 56.936 173.457 56.936C173.073 56.936 172.741 57.028 172.461 57.212C172.189 57.396 172.021 57.724 171.957 58.196L171.909 58.532H173.445L173.289 59.6H171.753L171.009 65H169.869ZM177.057 65.144C176.465 65.144 175.929 65.008 175.449 64.736C174.977 64.464 174.601 64.088 174.321 63.608C174.041 63.128 173.901 62.576 173.901 61.952C173.901 61.456 173.989 60.996 174.165 60.572C174.349 60.14 174.601 59.76 174.921 59.432C175.241 59.104 175.613 58.848 176.037 58.664C176.469 58.48 176.929 58.388 177.417 58.388C178.017 58.388 178.553 58.524 179.025 58.796C179.505 59.068 179.885 59.444 180.165 59.924C180.445 60.396 180.585 60.94 180.585 61.556C180.585 62.052 180.493 62.516 180.309 62.948C180.125 63.38 179.869 63.764 179.541 64.1C179.213 64.428 178.837 64.684 178.413 64.868C177.989 65.052 177.537 65.144 177.057 65.144ZM177.045 64.064C177.493 64.064 177.893 63.948 178.245 63.716C178.597 63.484 178.877 63.18 179.085 62.804C179.293 62.42 179.397 62 179.397 61.544C179.397 61.144 179.313 60.788 179.145 60.476C178.977 60.164 178.741 59.92 178.437 59.744C178.141 59.56 177.801 59.468 177.417 59.468C176.985 59.468 176.589 59.584 176.229 59.816C175.877 60.04 175.597 60.34 175.389 60.716C175.189 61.092 175.089 61.512 175.089 61.976C175.089 62.376 175.173 62.736 175.341 63.056C175.509 63.368 175.741 63.616 176.037 63.8C176.333 63.976 176.669 64.064 177.045 64.064ZM181.584 65L182.496 58.532H183.6L183.432 59.72L183.324 59.552C183.532 59.184 183.804 58.912 184.14 58.736C184.476 58.552 184.868 58.46 185.316 58.46H185.712L185.556 59.516H184.992C184.536 59.516 184.152 59.664 183.84 59.96C183.528 60.248 183.328 60.684 183.24 61.268L182.724 65H181.584ZM187.985 65L189.233 56.06H190.421L189.317 63.92H193.241L193.085 65H187.985ZM197.647 65.144C197.055 65.144 196.519 65.008 196.039 64.736C195.567 64.464 195.191 64.088 194.911 63.608C194.631 63.128 194.491 62.576 194.491 61.952C194.491 61.456 194.579 60.996 194.755 60.572C194.939 60.14 195.191 59.76 195.511 59.432C195.831 59.104 196.203 58.848 196.627 58.664C197.059 58.48 197.519 58.388 198.007 58.388C198.607 58.388 199.143 58.524 199.615 58.796C200.095 59.068 200.475 59.444 200.755 59.924C201.035 60.396 201.175 60.94 201.175 61.556C201.175 62.052 201.083 62.516 200.899 62.948C200.715 63.38 200.459 63.764 200.131 64.1C199.803 64.428 199.427 64.684 199.003 64.868C198.579 65.052 198.127 65.144 197.647 65.144ZM197.635 64.064C198.083 64.064 198.483 63.948 198.835 63.716C199.187 63.484 199.467 63.18 199.675 62.804C199.883 62.42 199.987 62 199.987 61.544C199.987 61.144 199.903 60.788 199.735 60.476C199.567 60.164 199.331 59.92 199.027 59.744C198.731 59.56 198.391 59.468 198.007 59.468C197.575 59.468 197.179 59.584 196.819 59.816C196.467 60.04 196.187 60.34 195.979 60.716C195.779 61.092 195.679 61.512 195.679 61.976C195.679 62.376 195.763 62.736 195.931 63.056C196.099 63.368 196.331 63.616 196.627 63.8C196.923 63.976 197.259 64.064 197.635 64.064ZM204.238 65.144C203.87 65.144 203.526 65.08 203.206 64.952C202.894 64.816 202.642 64.62 202.45 64.364C202.258 64.1 202.162 63.772 202.162 63.38C202.162 63.004 202.254 62.672 202.438 62.384C202.63 62.088 202.898 61.848 203.242 61.664C203.594 61.472 204.006 61.34 204.478 61.268L206.926 60.872L206.83 61.808L204.67 62.18C204.262 62.252 203.938 62.388 203.698 62.588C203.458 62.78 203.338 63.024 203.338 63.32C203.338 63.592 203.438 63.808 203.638 63.968C203.846 64.12 204.114 64.196 204.442 64.196C204.818 64.196 205.158 64.108 205.462 63.932C205.774 63.756 206.03 63.52 206.23 63.224C206.438 62.92 206.566 62.588 206.614 62.228L206.818 60.692C206.866 60.404 206.83 60.168 206.71 59.984C206.59 59.792 206.422 59.652 206.206 59.564C205.998 59.468 205.774 59.42 205.534 59.42C205.142 59.42 204.79 59.52 204.478 59.72C204.174 59.92 203.938 60.172 203.77 60.476L202.834 59.912C202.994 59.616 203.21 59.356 203.482 59.132C203.762 58.9 204.082 58.72 204.442 58.592C204.81 58.456 205.198 58.388 205.606 58.388C206.086 58.388 206.514 58.488 206.89 58.688C207.274 58.888 207.562 59.164 207.754 59.516C207.954 59.868 208.022 60.276 207.958 60.74L207.358 65H206.254L206.422 63.776L206.662 63.884C206.494 64.14 206.286 64.364 206.038 64.556C205.79 64.74 205.514 64.884 205.21 64.988C204.906 65.092 204.582 65.144 204.238 65.144ZM209.088 65L210 58.532H211.092L210.924 59.792L210.756 59.66C210.964 59.252 211.26 58.94 211.644 58.724C212.028 58.5 212.448 58.388 212.904 58.388C213.376 58.388 213.784 58.5 214.128 58.724C214.472 58.948 214.724 59.256 214.884 59.648C215.052 60.032 215.1 60.472 215.028 60.968L214.464 65H213.336L213.888 61.064C213.952 60.576 213.864 60.188 213.624 59.9C213.384 59.612 213.04 59.468 212.592 59.468C212.28 59.468 211.992 59.54 211.728 59.684C211.472 59.82 211.256 60.016 211.08 60.272C210.912 60.528 210.8 60.832 210.744 61.184L210.216 65H209.088ZM218.473 65.144C218.049 65.144 217.657 65.072 217.297 64.928C216.945 64.776 216.645 64.564 216.397 64.292C216.149 64.02 215.977 63.704 215.881 63.344L216.805 62.972C216.949 63.348 217.173 63.644 217.477 63.86C217.789 64.076 218.145 64.184 218.545 64.184C218.929 64.184 219.237 64.092 219.469 63.908C219.709 63.716 219.829 63.48 219.829 63.2C219.829 62.992 219.753 62.824 219.601 62.696C219.449 62.56 219.237 62.456 218.965 62.384L218.017 62.12C217.529 61.984 217.153 61.772 216.889 61.484C216.633 61.188 216.505 60.836 216.505 60.428C216.505 60.052 216.613 59.712 216.829 59.408C217.045 59.096 217.333 58.848 217.693 58.664C218.061 58.48 218.465 58.388 218.905 58.388C219.497 58.388 220.005 58.54 220.429 58.844C220.861 59.14 221.141 59.544 221.269 60.056L220.333 60.428C220.221 60.084 220.033 59.82 219.769 59.636C219.513 59.452 219.209 59.36 218.857 59.36C218.497 59.36 218.205 59.448 217.981 59.624C217.757 59.8 217.645 60.024 217.645 60.296C217.645 60.504 217.709 60.672 217.837 60.8C217.973 60.928 218.173 61.032 218.437 61.112L219.457 61.424C219.945 61.568 220.317 61.788 220.573 62.084C220.837 62.372 220.969 62.72 220.969 63.128C220.969 63.504 220.861 63.844 220.645 64.148C220.429 64.452 220.129 64.696 219.745 64.88C219.369 65.056 218.945 65.144 218.473 65.144ZM227.444 65.144C226.86 65.144 226.34 65.012 225.884 64.748C225.428 64.476 225.072 64.108 224.816 63.644C224.568 63.172 224.444 62.636 224.444 62.036C224.444 61.524 224.528 61.048 224.696 60.608C224.872 60.16 225.116 59.772 225.428 59.444C225.748 59.116 226.116 58.86 226.532 58.676C226.956 58.484 227.412 58.388 227.9 58.388C228.468 58.388 228.956 58.508 229.364 58.748C229.78 58.98 230.1 59.296 230.324 59.696L230.132 59.924L230.684 55.916H231.824L230.564 65H229.46L229.64 63.62L229.94 63.8C229.692 64.232 229.344 64.564 228.896 64.796C228.448 65.028 227.964 65.144 227.444 65.144ZM227.564 64.064C228.004 64.064 228.4 63.948 228.752 63.716C229.112 63.484 229.392 63.18 229.592 62.804C229.8 62.42 229.904 62.004 229.904 61.556C229.904 61.156 229.82 60.8 229.652 60.488C229.484 60.176 229.252 59.928 228.956 59.744C228.66 59.56 228.32 59.468 227.936 59.468C227.496 59.468 227.1 59.584 226.748 59.816C226.396 60.048 226.12 60.356 225.92 60.74C225.728 61.124 225.632 61.548 225.632 62.012C225.632 62.404 225.712 62.756 225.872 63.068C226.04 63.372 226.268 63.616 226.556 63.8C226.852 63.976 227.188 64.064 227.564 64.064ZM232.279 65L233.191 58.532H234.319L233.419 65H232.279ZM233.335 57.5L233.527 56.06H234.667L234.475 57.5H233.335ZM237.574 65.144C237.15 65.144 236.758 65.072 236.398 64.928C236.046 64.776 235.746 64.564 235.498 64.292C235.25 64.02 235.078 63.704 234.982 63.344L235.906 62.972C236.05 63.348 236.274 63.644 236.578 63.86C236.89 64.076 237.246 64.184 237.646 64.184C238.03 64.184 238.338 64.092 238.57 63.908C238.81 63.716 238.93 63.48 238.93 63.2C238.93 62.992 238.854 62.824 238.702 62.696C238.55 62.56 238.338 62.456 238.066 62.384L237.118 62.12C236.63 61.984 236.254 61.772 235.99 61.484C235.734 61.188 235.606 60.836 235.606 60.428C235.606 60.052 235.714 59.712 235.93 59.408C236.146 59.096 236.434 58.848 236.794 58.664C237.162 58.48 237.566 58.388 238.006 58.388C238.598 58.388 239.106 58.54 239.53 58.844C239.962 59.14 240.242 59.544 240.37 60.056L239.434 60.428C239.322 60.084 239.134 59.82 238.87 59.636C238.614 59.452 238.31 59.36 237.958 59.36C237.598 59.36 237.306 59.448 237.082 59.624C236.858 59.8 236.746 60.024 236.746 60.296C236.746 60.504 236.81 60.672 236.938 60.8C237.074 60.928 237.274 61.032 237.538 61.112L238.558 61.424C239.046 61.568 239.418 61.788 239.674 62.084C239.938 62.372 240.07 62.72 240.07 63.128C240.07 63.504 239.962 63.844 239.746 64.148C239.53 64.452 239.23 64.696 238.846 64.88C238.47 65.056 238.046 65.144 237.574 65.144ZM244.855 65.144C244.311 65.144 243.815 65.024 243.367 64.784C242.927 64.544 242.599 64.216 242.383 63.8L242.575 63.62L242.395 65H241.279L242.551 55.916H243.691L243.127 59.924L242.791 59.636C243.063 59.244 243.411 58.94 243.835 58.724C244.267 58.5 244.743 58.388 245.263 58.388C245.863 58.388 246.391 58.528 246.847 58.808C247.303 59.088 247.655 59.464 247.903 59.936C248.159 60.408 248.287 60.94 248.287 61.532C248.287 62.02 248.199 62.484 248.023 62.924C247.855 63.356 247.615 63.74 247.303 64.076C246.991 64.412 246.627 64.676 246.211 64.868C245.795 65.052 245.343 65.144 244.855 65.144ZM244.783 64.064C245.231 64.064 245.627 63.948 245.971 63.716C246.315 63.484 246.587 63.18 246.787 62.804C246.995 62.42 247.099 62 247.099 61.544C247.099 61.144 247.015 60.788 246.847 60.476C246.679 60.164 246.447 59.92 246.151 59.744C245.863 59.56 245.519 59.468 245.119 59.468C244.679 59.468 244.283 59.584 243.931 59.816C243.587 60.04 243.315 60.34 243.115 60.716C242.923 61.092 242.827 61.504 242.827 61.952C242.827 62.36 242.911 62.724 243.079 63.044C243.247 63.364 243.479 63.616 243.775 63.8C244.071 63.976 244.407 64.064 244.783 64.064ZM251.635 65.144C251.155 65.144 250.743 65.032 250.399 64.808C250.055 64.584 249.803 64.268 249.643 63.86C249.491 63.452 249.451 62.972 249.523 62.42L250.075 58.532H251.203L250.639 62.468C250.599 62.788 250.627 63.068 250.723 63.308C250.819 63.548 250.971 63.736 251.179 63.872C251.387 64 251.643 64.064 251.947 64.064C252.259 64.064 252.543 63.996 252.799 63.86C253.055 63.716 253.271 63.516 253.447 63.26C253.623 63.004 253.735 62.7 253.783 62.348L254.323 58.532H255.439L254.539 65H253.447L253.615 63.74L253.783 63.872C253.575 64.288 253.279 64.604 252.895 64.82C252.519 65.036 252.099 65.144 251.635 65.144ZM256.267 65L257.179 58.532H258.283L258.115 59.72L258.007 59.552C258.215 59.184 258.487 58.912 258.823 58.736C259.159 58.552 259.551 58.46 259.999 58.46H260.395L260.239 59.516H259.675C259.219 59.516 258.835 59.664 258.523 59.96C258.211 60.248 258.011 60.684 257.923 61.268L257.407 65H256.267ZM262.887 65.144C262.463 65.144 262.071 65.072 261.711 64.928C261.359 64.776 261.059 64.564 260.811 64.292C260.563 64.02 260.391 63.704 260.295 63.344L261.219 62.972C261.363 63.348 261.587 63.644 261.891 63.86C262.203 64.076 262.559 64.184 262.959 64.184C263.343 64.184 263.651 64.092 263.883 63.908C264.123 63.716 264.243 63.48 264.243 63.2C264.243 62.992 264.167 62.824 264.015 62.696C263.863 62.56 263.651 62.456 263.379 62.384L262.431 62.12C261.943 61.984 261.567 61.772 261.303 61.484C261.047 61.188 260.919 60.836 260.919 60.428C260.919 60.052 261.027 59.712 261.243 59.408C261.459 59.096 261.747 58.848 262.107 58.664C262.475 58.48 262.879 58.388 263.319 58.388C263.911 58.388 264.419 58.54 264.843 58.844C265.275 59.14 265.555 59.544 265.683 60.056L264.747 60.428C264.635 60.084 264.447 59.82 264.183 59.636C263.927 59.452 263.623 59.36 263.271 59.36C262.911 59.36 262.619 59.448 262.395 59.624C262.171 59.8 262.059 60.024 262.059 60.296C262.059 60.504 262.123 60.672 262.251 60.8C262.387 60.928 262.587 61.032 262.851 61.112L263.871 61.424C264.359 61.568 264.731 61.788 264.987 62.084C265.251 62.372 265.383 62.72 265.383 63.128C265.383 63.504 265.275 63.844 265.059 64.148C264.843 64.452 264.543 64.696 264.159 64.88C263.783 65.056 263.359 65.144 262.887 65.144ZM269.844 65.144C269.244 65.144 268.716 65.008 268.26 64.736C267.804 64.464 267.444 64.092 267.18 63.62C266.924 63.14 266.796 62.596 266.796 61.988C266.796 61.5 266.876 61.04 267.036 60.608C267.204 60.176 267.44 59.792 267.744 59.456C268.056 59.12 268.412 58.86 268.812 58.676C269.22 58.484 269.668 58.388 270.156 58.388C270.764 58.388 271.28 58.524 271.704 58.796C272.128 59.068 272.452 59.424 272.676 59.864C272.9 60.296 273.012 60.768 273.012 61.28C273.012 61.416 273 61.56 272.976 61.712C272.952 61.864 272.928 61.992 272.904 62.096H267.6L267.66 61.136H272.328L271.764 61.556C271.868 61.148 271.86 60.784 271.74 60.464C271.62 60.136 271.42 59.876 271.14 59.684C270.86 59.484 270.528 59.384 270.144 59.384C269.656 59.384 269.248 59.504 268.92 59.744C268.6 59.976 268.356 60.304 268.188 60.728C268.028 61.144 267.948 61.624 267.948 62.168C267.948 62.568 268.032 62.916 268.2 63.212C268.376 63.508 268.608 63.736 268.896 63.896C269.184 64.048 269.504 64.124 269.856 64.124C270.296 64.124 270.672 64.024 270.984 63.824C271.304 63.616 271.564 63.356 271.764 63.044L272.688 63.548C272.536 63.844 272.32 64.116 272.04 64.364C271.76 64.604 271.432 64.796 271.056 64.94C270.68 65.076 270.276 65.144 269.844 65.144ZM277.178 65.144C276.594 65.144 276.074 65.012 275.618 64.748C275.162 64.476 274.806 64.108 274.55 63.644C274.302 63.172 274.178 62.636 274.178 62.036C274.178 61.524 274.262 61.048 274.43 60.608C274.606 60.16 274.85 59.772 275.162 59.444C275.482 59.116 275.85 58.86 276.266 58.676C276.69 58.484 277.146 58.388 277.634 58.388C278.202 58.388 278.69 58.508 279.098 58.748C279.514 58.98 279.834 59.296 280.058 59.696L279.866 59.924L280.418 55.916H281.558L280.298 65H279.194L279.374 63.62L279.674 63.8C279.426 64.232 279.078 64.564 278.63 64.796C278.182 65.028 277.698 65.144 277.178 65.144ZM277.298 64.064C277.738 64.064 278.134 63.948 278.486 63.716C278.846 63.484 279.126 63.18 279.326 62.804C279.534 62.42 279.638 62.004 279.638 61.556C279.638 61.156 279.554 60.8 279.386 60.488C279.218 60.176 278.986 59.928 278.69 59.744C278.394 59.56 278.054 59.468 277.67 59.468C277.23 59.468 276.834 59.584 276.482 59.816C276.13 60.048 275.854 60.356 275.654 60.74C275.462 61.124 275.366 61.548 275.366 62.012C275.366 62.404 275.446 62.756 275.606 63.068C275.774 63.372 276.002 63.616 276.29 63.8C276.586 63.976 276.922 64.064 277.298 64.064ZM284.772 65L285.528 59.6H284.292L284.448 58.532H285.684L285.744 58.136C285.816 57.648 285.972 57.24 286.212 56.912C286.452 56.576 286.744 56.328 287.088 56.168C287.44 56 287.812 55.916 288.204 55.916C288.316 55.916 288.428 55.924 288.54 55.94C288.652 55.948 288.748 55.96 288.828 55.976L288.756 56.972C288.692 56.956 288.616 56.948 288.528 56.948C288.448 56.94 288.392 56.936 288.36 56.936C287.976 56.936 287.644 57.028 287.364 57.212C287.092 57.396 286.924 57.724 286.86 58.196L286.812 58.532H288.348L288.192 59.6H286.656L285.912 65H284.772ZM288.904 65L289.816 58.532H290.92L290.752 59.72L290.644 59.552C290.852 59.184 291.124 58.912 291.46 58.736C291.796 58.552 292.188 58.46 292.636 58.46H293.032L292.876 59.516H292.312C291.856 59.516 291.472 59.664 291.16 59.96C290.848 60.248 290.648 60.684 290.56 61.268L290.044 65H288.904ZM296.459 65.144C295.867 65.144 295.331 65.008 294.851 64.736C294.379 64.464 294.003 64.088 293.723 63.608C293.443 63.128 293.303 62.576 293.303 61.952C293.303 61.456 293.391 60.996 293.567 60.572C293.751 60.14 294.003 59.76 294.323 59.432C294.643 59.104 295.015 58.848 295.439 58.664C295.871 58.48 296.331 58.388 296.819 58.388C297.419 58.388 297.955 58.524 298.427 58.796C298.907 59.068 299.287 59.444 299.567 59.924C299.847 60.396 299.987 60.94 299.987 61.556C299.987 62.052 299.895 62.516 299.711 62.948C299.527 63.38 299.271 63.764 298.943 64.1C298.615 64.428 298.239 64.684 297.815 64.868C297.391 65.052 296.939 65.144 296.459 65.144ZM296.447 64.064C296.895 64.064 297.295 63.948 297.647 63.716C297.999 63.484 298.279 63.18 298.487 62.804C298.695 62.42 298.799 62 298.799 61.544C298.799 61.144 298.715 60.788 298.547 60.476C298.379 60.164 298.143 59.92 297.839 59.744C297.543 59.56 297.203 59.468 296.819 59.468C296.387 59.468 295.991 59.584 295.631 59.816C295.279 60.04 294.999 60.34 294.791 60.716C294.591 61.092 294.491 61.512 294.491 61.976C294.491 62.376 294.575 62.736 294.743 63.056C294.911 63.368 295.143 63.616 295.439 63.8C295.735 63.976 296.071 64.064 296.447 64.064ZM300.986 65L301.898 58.532H302.99L302.822 59.804L302.69 59.612C302.914 59.204 303.202 58.9 303.554 58.7C303.914 58.492 304.31 58.388 304.742 58.388C305.254 58.388 305.69 58.528 306.05 58.808C306.418 59.088 306.654 59.464 306.758 59.936H306.422C306.662 59.408 306.998 59.02 307.43 58.772C307.87 58.516 308.338 58.388 308.834 58.388C309.29 58.388 309.686 58.496 310.022 58.712C310.358 58.928 310.61 59.228 310.778 59.612C310.954 59.996 311.006 60.436 310.934 60.932L310.37 65H309.242L309.782 61.064C309.83 60.736 309.806 60.456 309.71 60.224C309.622 59.984 309.478 59.8 309.278 59.672C309.086 59.536 308.846 59.468 308.558 59.468C308.278 59.468 308.01 59.532 307.754 59.66C307.498 59.788 307.282 59.972 307.106 60.212C306.938 60.452 306.83 60.74 306.782 61.076L306.242 65H305.114L305.666 61.064C305.706 60.736 305.678 60.456 305.582 60.224C305.494 59.984 305.35 59.8 305.15 59.672C304.958 59.536 304.718 59.468 304.43 59.468C304.142 59.468 303.87 59.54 303.614 59.684C303.358 59.82 303.146 60.016 302.978 60.272C302.81 60.528 302.698 60.832 302.642 61.184L302.114 65H300.986ZM313.297 65L317.749 56.06H319.141L321.097 65H319.885L319.441 62.9H315.637L314.617 65H313.297ZM316.165 61.82H319.225L318.205 56.924L318.541 56.96L316.165 61.82ZM321.756 67.4L323.004 58.532H324.108L323.916 59.924L323.604 59.636C323.876 59.244 324.224 58.94 324.648 58.724C325.08 58.5 325.556 58.388 326.076 58.388C326.676 58.388 327.204 58.528 327.66 58.808C328.116 59.088 328.468 59.464 328.716 59.936C328.972 60.408 329.1 60.94 329.1 61.532C329.1 62.02 329.012 62.484 328.836 62.924C328.668 63.356 328.428 63.74 328.116 64.076C327.804 64.412 327.44 64.676 327.024 64.868C326.608 65.052 326.156 65.144 325.668 65.144C325.124 65.144 324.628 65.024 324.18 64.784C323.74 64.544 323.412 64.216 323.196 63.8L323.436 63.62L322.92 67.4H321.756ZM325.596 64.064C326.044 64.064 326.44 63.948 326.784 63.716C327.128 63.484 327.4 63.18 327.6 62.804C327.808 62.42 327.912 62 327.912 61.544C327.912 61.144 327.828 60.788 327.66 60.476C327.492 60.164 327.26 59.92 326.964 59.744C326.676 59.56 326.332 59.468 325.932 59.468C325.492 59.468 325.096 59.584 324.744 59.816C324.4 60.04 324.128 60.34 323.928 60.716C323.736 61.092 323.64 61.504 323.64 61.952C323.64 62.36 323.724 62.724 323.892 63.044C324.06 63.364 324.292 63.616 324.588 63.8C324.884 63.976 325.22 64.064 325.596 64.064ZM330.107 65L331.019 58.532H332.123L331.955 59.72L331.847 59.552C332.055 59.184 332.327 58.912 332.663 58.736C332.999 58.552 333.391 58.46 333.839 58.46H334.235L334.079 59.516H333.515C333.059 59.516 332.675 59.664 332.363 59.96C332.051 60.248 331.851 60.684 331.763 61.268L331.247 65H330.107ZM334.303 65L335.215 58.532H336.343L335.443 65H334.303ZM335.359 57.5L335.551 56.06H336.691L336.499 57.5H335.359ZM337.174 65L338.446 55.916H339.586L338.314 65H337.174ZM343.391 65L344.507 57.08H342.815L342.959 56.06H345.839L344.591 65H343.391ZM349.569 65.144C349.089 65.144 348.649 65.064 348.249 64.904C347.849 64.736 347.513 64.5 347.241 64.196C346.969 63.884 346.785 63.52 346.689 63.104L347.685 62.696C347.805 63.136 348.041 63.48 348.393 63.728C348.753 63.968 349.157 64.088 349.605 64.088C350.005 64.088 350.361 63.992 350.673 63.8C350.993 63.608 351.245 63.352 351.429 63.032C351.613 62.712 351.705 62.356 351.705 61.964C351.705 61.628 351.629 61.332 351.477 61.076C351.333 60.82 351.137 60.62 350.889 60.476C350.641 60.332 350.349 60.26 350.013 60.26C349.573 60.26 349.197 60.344 348.885 60.512C348.581 60.68 348.345 60.892 348.177 61.148L347.241 60.944L348.609 56.048H353.169L353.049 57.068H348.909L349.449 56.612L348.405 60.416L348.057 60.212C348.353 59.836 348.681 59.58 349.041 59.444C349.409 59.3 349.809 59.228 350.241 59.228C350.777 59.228 351.241 59.352 351.633 59.6C352.033 59.84 352.341 60.164 352.557 60.572C352.781 60.98 352.893 61.432 352.893 61.928C352.893 62.392 352.805 62.82 352.629 63.212C352.453 63.596 352.209 63.936 351.897 64.232C351.593 64.52 351.241 64.744 350.841 64.904C350.449 65.064 350.025 65.144 349.569 65.144ZM356.772 65.072C356.132 65.072 355.66 64.888 355.356 64.52C355.052 64.152 354.944 63.636 355.032 62.972L355.5 59.6H354.336L354.48 58.532H354.696C354.984 58.532 355.228 58.44 355.428 58.256C355.636 58.072 355.756 57.836 355.788 57.548L355.86 57.044H357L356.796 58.532H358.224L358.068 59.6H356.64L356.16 63.008C356.128 63.224 356.132 63.412 356.172 63.572C356.212 63.724 356.3 63.844 356.436 63.932C356.572 64.012 356.768 64.052 357.024 64.052C357.096 64.052 357.172 64.048 357.252 64.04C357.34 64.032 357.42 64.024 357.492 64.016L357.408 65.012C357.304 65.044 357.188 65.06 357.06 65.06C356.94 65.068 356.844 65.072 356.772 65.072ZM358.877 65L360.149 55.916H361.277L360.737 59.792L360.545 59.66C360.753 59.252 361.049 58.94 361.433 58.724C361.817 58.5 362.237 58.388 362.693 58.388C363.165 58.388 363.573 58.5 363.917 58.724C364.261 58.948 364.513 59.256 364.673 59.648C364.841 60.032 364.889 60.472 364.817 60.968L364.253 65H363.113L363.665 61.064C363.729 60.576 363.641 60.188 363.401 59.9C363.161 59.612 362.821 59.468 362.381 59.468C362.077 59.468 361.793 59.54 361.529 59.684C361.273 59.82 361.057 60.016 360.881 60.272C360.705 60.528 360.593 60.832 360.545 61.184L360.017 65H358.877ZM370.6 65.072C369.96 65.072 369.488 64.888 369.184 64.52C368.88 64.152 368.772 63.636 368.86 62.972L369.328 59.6H368.164L368.308 58.532H368.524C368.812 58.532 369.056 58.44 369.256 58.256C369.464 58.072 369.584 57.836 369.616 57.548L369.688 57.044H370.828L370.624 58.532H372.052L371.896 59.6H370.468L369.988 63.008C369.956 63.224 369.96 63.412 370 63.572C370.04 63.724 370.128 63.844 370.264 63.932C370.4 64.012 370.596 64.052 370.852 64.052C370.924 64.052 371 64.048 371.08 64.04C371.168 64.032 371.248 64.024 371.32 64.016L371.236 65.012C371.132 65.044 371.016 65.06 370.888 65.06C370.768 65.068 370.672 65.072 370.6 65.072ZM375.866 65.144C375.274 65.144 374.738 65.008 374.258 64.736C373.786 64.464 373.41 64.088 373.13 63.608C372.85 63.128 372.71 62.576 372.71 61.952C372.71 61.456 372.798 60.996 372.974 60.572C373.158 60.14 373.41 59.76 373.73 59.432C374.05 59.104 374.422 58.848 374.846 58.664C375.278 58.48 375.738 58.388 376.226 58.388C376.826 58.388 377.362 58.524 377.834 58.796C378.314 59.068 378.694 59.444 378.974 59.924C379.254 60.396 379.394 60.94 379.394 61.556C379.394 62.052 379.302 62.516 379.118 62.948C378.934 63.38 378.678 63.764 378.35 64.1C378.022 64.428 377.646 64.684 377.222 64.868C376.798 65.052 376.346 65.144 375.866 65.144ZM375.854 64.064C376.302 64.064 376.702 63.948 377.054 63.716C377.406 63.484 377.686 63.18 377.894 62.804C378.102 62.42 378.206 62 378.206 61.544C378.206 61.144 378.122 60.788 377.954 60.476C377.786 60.164 377.55 59.92 377.246 59.744C376.95 59.56 376.61 59.468 376.226 59.468C375.794 59.468 375.398 59.584 375.038 59.816C374.686 60.04 374.406 60.34 374.198 60.716C373.998 61.092 373.898 61.512 373.898 61.976C373.898 62.376 373.982 62.736 374.15 63.056C374.318 63.368 374.55 63.616 374.846 63.8C375.142 63.976 375.478 64.064 375.854 64.064ZM382.203 65L382.359 63.86H382.767C383.215 63.86 383.591 63.736 383.895 63.488C384.199 63.232 384.379 62.888 384.435 62.456L385.335 56.06H386.511L385.611 62.528C385.547 63.016 385.387 63.448 385.131 63.824C384.883 64.192 384.555 64.48 384.147 64.688C383.747 64.896 383.287 65 382.767 65H382.203ZM389.436 65.144C388.956 65.144 388.544 65.032 388.2 64.808C387.856 64.584 387.604 64.268 387.444 63.86C387.292 63.452 387.252 62.972 387.324 62.42L387.876 58.532H389.004L388.44 62.468C388.4 62.788 388.428 63.068 388.524 63.308C388.62 63.548 388.772 63.736 388.98 63.872C389.188 64 389.444 64.064 389.748 64.064C390.06 64.064 390.344 63.996 390.6 63.86C390.856 63.716 391.072 63.516 391.248 63.26C391.424 63.004 391.536 62.7 391.584 62.348L392.124 58.532H393.24L392.34 65H391.248L391.416 63.74L391.584 63.872C391.376 64.288 391.08 64.604 390.696 64.82C390.32 65.036 389.9 65.144 389.436 65.144ZM394.068 65L395.34 55.916H396.48L395.208 65H394.068ZM396.963 67.64C396.811 67.64 396.663 67.624 396.519 67.592C396.367 67.568 396.231 67.532 396.111 67.484L396.195 66.5C396.283 66.516 396.391 66.532 396.519 66.548C396.639 66.572 396.755 66.584 396.867 66.584C397.131 66.584 397.351 66.544 397.527 66.464C397.711 66.384 397.875 66.26 398.019 66.092C398.171 65.924 398.323 65.712 398.475 65.456L399.039 64.508L398.907 65.48L397.119 58.532H398.295L399.663 64.052H399.255L402.219 58.532H403.491L399.555 65.792C399.371 66.144 399.155 66.46 398.907 66.74C398.659 67.02 398.375 67.24 398.055 67.4C397.735 67.56 397.371 67.64 396.963 67.64ZM406.918 65L408.034 57.08H406.342L406.486 56.06H409.366L408.118 65H406.918ZM413.096 65.144C412.616 65.144 412.176 65.064 411.776 64.904C411.376 64.736 411.04 64.5 410.768 64.196C410.496 63.884 410.312 63.52 410.216 63.104L411.212 62.696C411.332 63.136 411.568 63.48 411.92 63.728C412.28 63.968 412.684 64.088 413.132 64.088C413.532 64.088 413.888 63.992 414.2 63.8C414.52 63.608 414.772 63.352 414.956 63.032C415.14 62.712 415.232 62.356 415.232 61.964C415.232 61.628 415.156 61.332 415.004 61.076C414.86 60.82 414.664 60.62 414.416 60.476C414.168 60.332 413.876 60.26 413.54 60.26C413.1 60.26 412.724 60.344 412.412 60.512C412.108 60.68 411.872 60.892 411.704 61.148L410.768 60.944L412.136 56.048H416.696L416.576 57.068H412.436L412.976 56.612L411.932 60.416L411.584 60.212C411.88 59.836 412.208 59.58 412.568 59.444C412.936 59.3 413.336 59.228 413.768 59.228C414.304 59.228 414.768 59.352 415.16 59.6C415.56 59.84 415.868 60.164 416.084 60.572C416.308 60.98 416.42 61.432 416.42 61.928C416.42 62.392 416.332 62.82 416.156 63.212C415.98 63.596 415.736 63.936 415.424 64.232C415.12 64.52 414.768 64.744 414.368 64.904C413.976 65.064 413.552 65.144 413.096 65.144ZM420.299 65.072C419.659 65.072 419.187 64.888 418.883 64.52C418.579 64.152 418.471 63.636 418.559 62.972L419.027 59.6H417.863L418.007 58.532H418.223C418.511 58.532 418.755 58.44 418.955 58.256C419.163 58.072 419.283 57.836 419.315 57.548L419.387 57.044H420.527L420.323 58.532H421.751L421.595 59.6H420.167L419.687 63.008C419.655 63.224 419.659 63.412 419.699 63.572C419.739 63.724 419.827 63.844 419.963 63.932C420.099 64.012 420.295 64.052 420.551 64.052C420.623 64.052 420.699 64.048 420.779 64.04C420.867 64.032 420.947 64.024 421.019 64.016L420.935 65.012C420.831 65.044 420.715 65.06 420.587 65.06C420.467 65.068 420.371 65.072 420.299 65.072ZM422.404 65L423.676 55.916H424.804L424.264 59.792L424.072 59.66C424.28 59.252 424.576 58.94 424.96 58.724C425.344 58.5 425.764 58.388 426.22 58.388C426.692 58.388 427.1 58.5 427.444 58.724C427.788 58.948 428.04 59.256 428.2 59.648C428.368 60.032 428.416 60.472 428.344 60.968L427.78 65H426.64L427.192 61.064C427.256 60.576 427.168 60.188 426.928 59.9C426.688 59.612 426.348 59.468 425.908 59.468C425.604 59.468 425.32 59.54 425.056 59.684C424.8 59.82 424.584 60.016 424.408 60.272C424.232 60.528 424.12 60.832 424.072 61.184L423.544 65H422.404ZM429.317 66.668L429.389 66.164C429.653 66.1 429.865 65.968 430.025 65.768C430.193 65.576 430.313 65.32 430.385 65H429.797L430.001 63.56H431.165L431.009 64.7C430.937 65.22 430.757 65.648 430.469 65.984C430.181 66.328 429.797 66.556 429.317 66.668ZM435.061 65L435.145 64.184L437.893 61.508C438.309 61.092 438.665 60.736 438.961 60.44C439.265 60.144 439.509 59.88 439.693 59.648C439.885 59.416 440.025 59.192 440.113 58.976C440.201 58.752 440.245 58.512 440.245 58.256C440.245 57.856 440.117 57.54 439.861 57.308C439.613 57.076 439.265 56.96 438.817 56.96C438.345 56.96 437.925 57.1 437.557 57.38C437.197 57.66 436.925 58.056 436.741 58.568L435.697 58.244C435.849 57.764 436.077 57.352 436.381 57.008C436.693 56.656 437.057 56.388 437.473 56.204C437.897 56.012 438.357 55.916 438.853 55.916C439.349 55.916 439.793 56.008 440.185 56.192C440.577 56.376 440.881 56.636 441.097 56.972C441.321 57.308 441.433 57.708 441.433 58.172C441.433 58.484 441.385 58.78 441.289 59.06C441.193 59.332 441.053 59.604 440.869 59.876C440.685 60.14 440.461 60.412 440.197 60.692C439.941 60.972 439.645 61.268 439.309 61.58L436.801 63.98H441.049L440.917 65H435.061ZM446.151 65.144C445.503 65.144 444.939 64.984 444.459 64.664C443.987 64.344 443.623 63.892 443.367 63.308C443.119 62.724 442.995 62.04 442.995 61.256C442.995 60.552 443.083 59.88 443.259 59.24C443.443 58.6 443.707 58.032 444.051 57.536C444.403 57.04 444.827 56.648 445.323 56.36C445.819 56.064 446.383 55.916 447.015 55.916C447.663 55.916 448.223 56.076 448.695 56.396C449.167 56.716 449.531 57.164 449.787 57.74C450.043 58.316 450.171 58.996 450.171 59.78C450.171 60.484 450.079 61.156 449.895 61.796C449.719 62.436 449.459 63.008 449.115 63.512C448.779 64.008 448.359 64.404 447.855 64.7C447.359 64.996 446.791 65.144 446.151 65.144ZM446.175 64.052C446.647 64.052 447.059 63.928 447.411 63.68C447.763 63.424 448.055 63.088 448.287 62.672C448.519 62.256 448.691 61.796 448.803 61.292C448.923 60.78 448.983 60.272 448.983 59.768C448.983 58.92 448.807 58.248 448.455 57.752C448.103 57.256 447.611 57.008 446.979 57.008C446.523 57.008 446.119 57.132 445.767 57.38C445.415 57.62 445.119 57.944 444.879 58.352C444.647 58.76 444.471 59.22 444.351 59.732C444.231 60.236 444.171 60.748 444.171 61.268C444.171 61.836 444.251 62.328 444.411 62.744C444.571 63.16 444.799 63.484 445.095 63.716C445.399 63.94 445.759 64.052 446.175 64.052ZM451.21 65L451.294 64.184L454.042 61.508C454.458 61.092 454.814 60.736 455.11 60.44C455.414 60.144 455.658 59.88 455.842 59.648C456.034 59.416 456.174 59.192 456.262 58.976C456.35 58.752 456.394 58.512 456.394 58.256C456.394 57.856 456.266 57.54 456.01 57.308C455.762 57.076 455.414 56.96 454.966 56.96C454.494 56.96 454.074 57.1 453.706 57.38C453.346 57.66 453.074 58.056 452.89 58.568L451.846 58.244C451.998 57.764 452.226 57.352 452.53 57.008C452.842 56.656 453.206 56.388 453.622 56.204C454.046 56.012 454.506 55.916 455.002 55.916C455.498 55.916 455.942 56.008 456.334 56.192C456.726 56.376 457.03 56.636 457.246 56.972C457.47 57.308 457.582 57.708 457.582 58.172C457.582 58.484 457.534 58.78 457.438 59.06C457.342 59.332 457.202 59.604 457.018 59.876C456.834 60.14 456.61 60.412 456.346 60.692C456.09 60.972 455.794 61.268 455.458 61.58L452.95 63.98H457.198L457.066 65H451.21ZM461.471 65.144C460.991 65.144 460.551 65.064 460.151 64.904C459.751 64.736 459.415 64.5 459.143 64.196C458.871 63.884 458.687 63.52 458.591 63.104L459.587 62.696C459.707 63.136 459.943 63.48 460.295 63.728C460.655 63.968 461.059 64.088 461.507 64.088C461.907 64.088 462.263 63.992 462.575 63.8C462.895 63.608 463.147 63.352 463.331 63.032C463.515 62.712 463.607 62.356 463.607 61.964C463.607 61.628 463.531 61.332 463.379 61.076C463.235 60.82 463.039 60.62 462.791 60.476C462.543 60.332 462.251 60.26 461.915 60.26C461.475 60.26 461.099 60.344 460.787 60.512C460.483 60.68 460.247 60.892 460.079 61.148L459.143 60.944L460.511 56.048H465.071L464.951 57.068H460.811L461.351 56.612L460.307 60.416L459.959 60.212C460.255 59.836 460.583 59.58 460.943 59.444C461.311 59.3 461.711 59.228 462.143 59.228C462.679 59.228 463.143 59.352 463.535 59.6C463.935 59.84 464.243 60.164 464.459 60.572C464.683 60.98 464.795 61.432 464.795 61.928C464.795 62.392 464.707 62.82 464.531 63.212C464.355 63.596 464.111 63.936 463.799 64.232C463.495 64.52 463.143 64.744 462.743 64.904C462.351 65.064 461.927 65.144 461.471 65.144Z" fill="#777777"/>
<path d="M132.788 60L133.412 58.52H132.452L132.548 57.84H133.7L134.412 56.192H133.452L133.548 55.512H134.7L135.332 54.04H136.108L135.484 55.512H137.044L137.668 54.04H138.444L137.82 55.512H138.78L138.684 56.192H137.532L136.82 57.84H137.78L137.684 58.52H136.532L135.908 60H135.124L135.748 58.52H134.196L133.564 60H132.788ZM134.484 57.84H136.044L136.748 56.192H135.188L134.484 57.84Z" fill="#777777"/>
</svg>
